<?xml version="1.0" encoding="UTF-8" standalone="no"?>
<!DOCTYPE svg PUBLIC "-//W3C//DTD SVG 1.1//EN" "http://www.w3.org/Graphics/SVG/1.1/DTD/svg11.dtd">
<svg version="1.1" xmlns="http://www.w3.org/2000/svg" xmlns:xlink="http://www.w3.org/1999/xlink" preserveAspectRatio="xMidYMid meet" viewBox="0 0 86.6 100" width="86.6" height="100"><defs><path d="M43.3 0L0 25L0 75L43.3 100L86.6 75L86.6 25L43.3 0Z" id="aXKI1hLVk"></path><path d="M43.3 0L0 25L0 75L43.3 100L86.6 75L86.6 25L43.3 0Z" id="e4sy9KT3FO"></path><clipPath id="clipgxPHGbQ8V"><use xlink:href="#e4sy9KT3FO" opacity="0.85"></use></clipPath><path d="M55.99 36.02L56.11 36.04L56.22 36.07L56.33 36.11L56.43 36.16L56.53 36.21L56.63 36.27L56.72 36.34L56.81 36.41L56.89 36.49L56.96 36.58L57.03 36.67L57.09 36.77L57.14 36.87L57.19 36.97L57.23 37.08L57.26 37.19L57.28 37.31L57.3 37.43L57.3 37.55L57.3 62.46L57.3 62.54L57.29 62.62L57.27 62.7L57.24 62.77L57.21 62.85L57.17 62.93L57.13 63.01L57.08 63.08L57.02 63.16L56.95 63.23L56.88 63.31L56.8 63.38L56.71 63.45L56.61 63.52L56.51 63.59L56.4 63.66L56.29 63.73L56.16 63.8L56.04 63.87L55.9 63.93L55.75 64L47.88 64L47.88 53.16L51.52 53.16L52.06 48.94L47.88 48.94L47.88 46.24L47.88 46L47.9 45.77L47.93 45.55L47.97 45.35L48.03 45.16L48.11 44.98L48.21 44.82L48.33 44.68L48.48 44.55L48.65 44.44L48.85 44.35L49.08 44.28L49.34 44.22L49.64 44.19L49.97 44.18L52.21 44.18L52.21 40.4L52.12 40.39L52.01 40.37L51.87 40.36L51.72 40.35L51.54 40.33L51.34 40.32L51.13 40.3L50.9 40.29L50.65 40.27L50.4 40.26L50.13 40.25L49.85 40.24L49.56 40.24L49.26 40.23L48.95 40.23L48.32 40.26L47.72 40.33L47.15 40.46L46.61 40.64L46.11 40.87L45.64 41.16L45.22 41.48L44.84 41.86L44.5 42.29L44.21 42.76L43.96 43.28L43.77 43.85L43.63 44.46L43.54 45.12L43.51 45.82L43.51 48.94L39.86 48.94L39.86 53.16L43.51 53.16L43.51 64L30.85 64L30.72 64L30.61 63.98L30.49 63.96L30.38 63.93L30.27 63.89L30.17 63.84L30.07 63.79L29.97 63.73L29.88 63.66L29.79 63.59L29.71 63.51L29.64 63.42L29.57 63.33L29.51 63.24L29.46 63.14L29.41 63.03L29.37 62.92L29.34 62.81L29.32 62.69L29.3 62.58L29.3 62.46L29.3 37.55L29.3 37.43L29.32 37.31L29.34 37.19L29.37 37.08L29.41 36.97L29.46 36.87L29.51 36.77L29.57 36.67L29.64 36.58L29.71 36.49L29.79 36.41L29.88 36.34L29.97 36.27L30.07 36.21L30.17 36.16L30.27 36.11L30.38 36.07L30.49 36.04L30.61 36.02L30.72 36.01L30.85 36L55.75 36L55.88 36.01L55.99 36.02Z" id="f22zXPlUL1"></path></defs><g><g><g><g><filter id="shadow7228787" x="-15.5" y="-15.5" width="117.6" height="131" filterUnits="userSpaceOnUse" primitiveUnits="userSpaceOnUse"><feFlood></feFlood><feComposite in2="SourceAlpha" operator="out"></feComposite><feGaussianBlur stdDeviation="2"></feGaussianBlur><feOffset dx="0" dy="0" result="afterOffset"></feOffset><feFlood flood-color="#1e1e1e" flood-opacity="0.7"></feFlood><feComposite in2="afterOffset" operator="in"></feComposite><feMorphology operator="dilate" radius="2.5"></feMorphology><feComposite in2="SourceAlpha" operator="in"></feComposite></filter><path d="M43.3 0L0 25L0 75L43.3 100L86.6 75L86.6 25L43.3 0Z" id="c9aGNTZOHX" fill="white" fill-opacity="1" filter="url(#shadow7228787)"></path></g></g><g><g clip-path="url(#clipgxPHGbQ8V)"><use xlink:href="#e4sy9KT3FO" opacity="0.85" fill-opacity="0" stroke="#e37528" stroke-width="5" stroke-opacity="1"></use></g></g><g><use xlink:href="#f22zXPlUL1" opacity="0.8" fill="#2889e3" fill-opacity="1"></use></g></g></g></svg>