<?xml version="1.0" encoding="UTF-8" standalone="no"?>
<!DOCTYPE svg PUBLIC "-//W3C//DTD SVG 1.1//EN" "http://www.w3.org/Graphics/SVG/1.1/DTD/svg11.dtd">
<svg version="1.1" xmlns="http://www.w3.org/2000/svg" xmlns:xlink="http://www.w3.org/1999/xlink" preserveAspectRatio="xMidYMid meet" viewBox="0 0 86.6 100" width="86.6" height="100"><defs><path d="M43.3 0L0 25L0 75L43.3 100L86.6 75L86.6 25L43.3 0Z" id="fbbi4w3Wa"></path><clipPath id="clipf13NJyb1Zp"><use xlink:href="#fbbi4w3Wa" opacity="1"></use></clipPath><path d="M50.6 35.1L51.24 35.18L51.87 35.31L52.47 35.48L53.06 35.69L53.63 35.95L54.17 36.25L54.69 36.58L55.18 36.95L55.64 37.36L56.07 37.79L56.47 38.26L56.83 38.75L57.16 39.27L57.45 39.82L57.7 40.39L57.91 40.98L58.08 41.58L58.2 42.21L58.27 42.85L58.3 43.51L58.3 56.65L58.27 57.3L58.2 57.94L58.08 58.56L57.91 59.17L57.7 59.76L57.45 60.32L57.16 60.86L56.83 61.38L56.46 61.87L56.07 62.33L55.63 62.77L55.17 63.17L54.68 63.53L54.16 63.86L53.62 64.15L53.05 64.4L52.47 64.61L51.86 64.78L51.24 64.9L50.6 64.98L49.95 65L36.73 65L36.08 64.98L35.44 64.9L34.81 64.78L34.2 64.61L33.62 64.4L33.05 64.15L32.5 63.86L31.99 63.53L31.49 63.17L31.03 62.77L30.6 62.34L30.19 61.88L29.83 61.38L29.49 60.87L29.2 60.32L28.95 59.76L28.73 59.17L28.56 58.57L28.44 57.94L28.36 57.3L28.33 56.65L28.3 49.74L28.33 43.51L28.36 42.85L28.44 42.21L28.56 41.58L28.73 40.97L28.94 40.38L29.2 39.82L29.49 39.27L29.82 38.75L30.19 38.26L30.59 37.79L31.02 37.35L31.49 36.95L31.98 36.58L32.5 36.25L33.04 35.95L33.61 35.7L34.2 35.48L34.81 35.31L35.43 35.18L36.07 35.1L36.73 35.07L43.58 35L49.95 35.07L50.6 35.1ZM36.14 37.84L35.65 37.91L35.17 38.02L34.71 38.18L34.27 38.37L33.84 38.6L33.44 38.86L33.07 39.16L32.72 39.48L32.39 39.83L32.1 40.21L31.84 40.61L31.62 41.03L31.43 41.48L31.27 41.94L31.16 42.42L31.09 42.92L31.06 43.42L30.99 49.75L30.99 50.44L30.99 51.09L31 51.71L31 52.29L31 52.84L31 53.35L31.01 53.83L31.01 54.27L31.02 54.68L31.02 55.05L31.02 55.39L31.03 55.69L31.04 55.96L31.04 56.19L31.05 56.39L31.05 56.55L31.06 56.68L31.07 56.77L31.08 56.88L31.09 56.98L31.1 57.07L31.11 57.16L31.12 57.25L31.13 57.33L31.14 57.4L31.16 57.48L31.17 57.54L31.18 57.61L31.2 57.68L31.21 57.74L31.23 57.8L31.24 57.87L31.26 57.93L31.27 57.99L31.3 58.13L31.42 58.52L31.56 58.91L31.73 59.27L31.92 59.62L32.13 59.96L32.37 60.27L32.63 60.57L32.91 60.85L33.22 61.1L33.53 61.33L33.87 61.54L34.22 61.73L34.59 61.89L34.98 62.02L35.37 62.12L35.78 62.2L36.2 62.25L36.63 62.26L50.06 62.26L50.56 62.24L51.05 62.17L51.52 62.06L51.98 61.92L52.41 61.73L52.83 61.51L53.23 61.26L53.6 60.97L53.94 60.65L54.26 60.31L54.55 59.94L54.8 59.54L55.02 59.12L55.21 58.69L55.36 58.23L55.46 57.76L55.53 57.27L55.55 56.77L55.55 43.39L55.53 42.89L55.46 42.39L55.36 41.92L55.21 41.46L55.03 41.02L54.81 40.6L54.55 40.2L54.27 39.82L53.95 39.47L53.6 39.15L53.23 38.86L52.84 38.6L52.42 38.37L51.98 38.18L51.53 38.02L51.05 37.91L50.56 37.83L50.06 37.8L43.53 37.69L36.65 37.81L36.14 37.84Z" id="b1Paers0K1"></path><path d="M53.2 42.07C53.2 43.08 52.37 43.9 51.36 43.9C50.35 43.9 49.53 43.08 49.53 42.07C49.53 41.07 50.35 40.25 51.36 40.25C52.37 40.25 53.2 41.07 53.2 42.07Z" id="h7gsPMZg8"></path><path d="M46.03 42.87L47.23 43.44L48.31 44.2L49.23 45.12L50 46.2L50.57 47.39L50.92 48.69L51.05 50.08L50.92 51.46L50.57 52.76L50 53.96L49.23 55.03L48.31 55.96L47.23 56.72L46.03 57.29L44.72 57.64L43.34 57.77L41.95 57.64L40.65 57.29L39.45 56.72L38.37 55.96L37.44 55.03L36.68 53.96L36.11 52.76L35.75 51.46L35.63 50.08L35.75 48.69L36.11 47.39L36.68 46.2L37.44 45.12L38.37 44.2L39.45 43.44L40.65 42.87L41.95 42.51L43.34 42.39L44.72 42.51L46.03 42.87ZM40.81 45.77L39.8 46.55L39.02 47.56L38.51 48.75L38.33 50.08L38.51 51.4L39.02 52.6L39.8 53.61L40.81 54.39L42.01 54.89L43.34 55.07L44.67 54.89L45.86 54.39L46.88 53.61L47.66 52.6L48.16 51.4L48.34 50.08L48.16 48.75L47.66 47.56L46.88 46.55L45.86 45.77L44.67 45.26L43.34 45.09L42.01 45.26L40.81 45.77Z" id="b6fwTuvzfY"></path></defs><g><g><g><g clip-path="url(#clipf13NJyb1Zp)"><use xlink:href="#fbbi4w3Wa" opacity="1" fill-opacity="0" stroke="#9d9d9d" stroke-width="6" stroke-opacity="1"></use></g></g><g><g><use xlink:href="#b1Paers0K1" opacity="1" fill="#9d9d9d" fill-opacity="1"></use><g><use xlink:href="#b1Paers0K1" opacity="1" fill-opacity="0" stroke="#000000" stroke-width="11" stroke-opacity="0"></use></g></g><g><use xlink:href="#h7gsPMZg8" opacity="1" fill="#9d9d9d" fill-opacity="1"></use></g><g><use xlink:href="#b6fwTuvzfY" opacity="1" fill="#9d9d9d" fill-opacity="1"></use></g></g></g></g></svg>