<?xml version="1.0" encoding="UTF-8" standalone="no"?>
<!DOCTYPE svg PUBLIC "-//W3C//DTD SVG 1.1//EN" "http://www.w3.org/Graphics/SVG/1.1/DTD/svg11.dtd">
<svg version="1.1" xmlns="http://www.w3.org/2000/svg" xmlns:xlink="http://www.w3.org/1999/xlink" preserveAspectRatio="xMidYMid meet" viewBox="0 0 520 600" width="520" height="600"><defs><path d="M265 510L265.1 596.88L259.81 600L255 597.16L255 510L265 510Z" id="bAydyVOb2"></path><path d="M518.05 150.12L507.43 151.3L257.42 295.72L261.66 303.06L511.99 158.45L518.05 150.12Z" id="esVFaTGkf"></path><path d="M104.33 208.88L111.26 207.93L252.53 289.57L248.29 296.91L106.84 215.16L104.33 208.88Z" id="ak9CInhp1"></path><path d="M0.04 149.98L5.98 147.57L106.39 205.64L103.83 209.85L101.39 214.3L0.85 156.16L0.04 149.98Z" id="dI8G0LmrS"></path><path d="M77.95 201L103.93 216L103.93 210L0 150L0 450L77.95 495L77.95 201Z" id="bPYXxbho0"></path><path d="M519.62 150L441.68 195L259.81 90L155.89 150L332.57 252.14L436.48 192L441.68 195L259.81 300L0 150L259.81 0L519.62 150Z" id="cp8iZplza"></path><path d="M441.68 405L441.68 285L337.75 345L337.75 435L259.81 480L259.81 300L519.62 150L519.62 450L259.81 600L259.81 510L441.68 405Z" id="amiUBp8cb"></path><path d="M181.87 465L181.87 266.81L181.87 260.71L257.21 304.4L257.21 481.52L262.41 478.49L262.41 298.51L260 300L96.61 205.77L96.61 211.76L103.79 215.92L103.93 510L259.81 600L259.81 510L181.87 465Z" id="ecnk5OdpE"></path><path d="M257.21 304.4L257.21 481.51L262.41 478.49L262.41 298.5L259.94 299.94L257.21 304.4Z" id="d4b8wZzgTd"></path><linearGradient id="gradientfivPrN4tr" gradientUnits="userSpaceOnUse" x1="259.81" y1="298.5" x2="260.06" y2="481.26"><stop style="stop-color: #2887e1;stop-opacity: 0" offset="0%"></stop><stop style="stop-color: #2888e3;stop-opacity: 0.1" offset="2.899846127245573%"></stop><stop style="stop-color: #2888e3;stop-opacity: 0.35" offset="13.021620750048172%"></stop><stop style="stop-color: #2888e3;stop-opacity: 0.2" offset="69.30742625843723%"></stop><stop style="stop-color: #0c2c49;stop-opacity: 1" offset="100%"></stop></linearGradient><path d="M0.03 150.82L9.38 156.32L9.38 155.44L10.6 154.52L1.21 149.34L0.03 150L0.03 150.82Z" id="i8RsCQGFFs"></path><linearGradient id="gradientc3pYEhwW9z" gradientUnits="userSpaceOnUse" x1="0.13" y1="150" x2="11.35" y2="155.72"><stop style="stop-color: #5b2f10;stop-opacity: 1" offset="0%"></stop><stop style="stop-color: #5b2f10;stop-opacity: 1" offset="46.99312408119883%"></stop><stop style="stop-color: #7a3f15;stop-opacity: 1" offset="67.19077140083485%"></stop><stop style="stop-color: #e37528;stop-opacity: 0.8" offset="100%"></stop></linearGradient><path d="M94.31 210.44L98.71 212.97L98.65 206.93L94.31 204.46L94.31 210.44Z" id="b4jUEXH4fG"></path><linearGradient id="gradienta6FJdop3WH" gradientUnits="userSpaceOnUse" x1="95.25" y1="208.38" x2="97.75" y2="208.5"><stop style="stop-color: #5c3316;stop-opacity: 1" offset="0%"></stop><stop style="stop-color: #163a5c;stop-opacity: 1" offset="100%"></stop></linearGradient><path d="M260.95 599.3L260.98 585.72L259.72 586.23L258.32 585.42L258.52 598.97L259.95 599.89L260.95 599.3Z" id="iTp9nR5Vg"></path><linearGradient id="gradienteISsXv9q" gradientUnits="userSpaceOnUse" x1="259.88" y1="599.78" x2="259.72" y2="585.1"><stop style="stop-color: #163a5c;stop-opacity: 1" offset="0%"></stop><stop style="stop-color: #153a5c;stop-opacity: 0.81" offset="25.136771314871876%"></stop><stop style="stop-color: #153a5c;stop-opacity: 0.64" offset="45.430135763284696%"></stop><stop style="stop-color: #2888e3;stop-opacity: 0.4" offset="100%"></stop></linearGradient></defs><g><g><g><use xlink:href="#bAydyVOb2" opacity="1" fill="#2888e3" fill-opacity="1"></use></g><g><use xlink:href="#esVFaTGkf" opacity="1" fill="#2888e3" fill-opacity="0.92"></use></g><g><use xlink:href="#ak9CInhp1" opacity="1" fill="#2889e3" fill-opacity="1"></use></g><g><use xlink:href="#dI8G0LmrS" opacity="1" fill="#e37528" fill-opacity="1"></use></g><g><use xlink:href="#bPYXxbho0" opacity="1" fill="#e57f38" fill-opacity="1"></use><g><filter id="shadow579658" x="-24" y="126" width="159.92" height="397" filterUnits="userSpaceOnUse" primitiveUnits="userSpaceOnUse"><feFlood></feFlood><feComposite in2="SourceAlpha" operator="out"></feComposite><feGaussianBlur stdDeviation="2.24"></feGaussianBlur><feOffset dx="8" dy="-4" result="afterOffset"></feOffset><feFlood flood-color="#000000" flood-opacity="0.6"></feFlood><feComposite in2="afterOffset" operator="in"></feComposite><feMorphology operator="dilate" radius="1"></feMorphology><feComposite in2="SourceAlpha" operator="in"></feComposite></filter><path d="M77.95 201L103.93 216L103.93 210L0 150L0 450L77.95 495L77.95 201Z" id="a7FJDQiTT" fill="white" fill-opacity="1" filter="url(#shadow579658)"></path></g></g><g><use xlink:href="#cp8iZplza" opacity="1" fill="#e37528" fill-opacity="1"></use><g><filter id="shadow6372939" x="-24" y="-24" width="567.62" height="356" filterUnits="userSpaceOnUse" primitiveUnits="userSpaceOnUse"><feFlood></feFlood><feComposite in2="SourceAlpha" operator="out"></feComposite><feGaussianBlur stdDeviation="2.24"></feGaussianBlur><feOffset dx="0" dy="8" result="afterOffset"></feOffset><feFlood flood-color="#000000" flood-opacity="0.6"></feFlood><feComposite in2="afterOffset" operator="in"></feComposite><feMorphology operator="dilate" radius="1"></feMorphology><feComposite in2="SourceAlpha" operator="in"></feComposite></filter><path d="M519.62 150L441.68 195L259.81 90L155.89 150L332.57 252.14L436.48 192L441.68 195L259.81 300L0 150L259.81 0L519.62 150Z" id="a7ObBizJM" fill="white" fill-opacity="1" filter="url(#shadow6372939)"></path></g></g><g><use xlink:href="#amiUBp8cb" opacity="1" fill="#2889e3" fill-opacity="1"></use><g><filter id="shadow13568913" x="235.81" y="126" width="315.81" height="502" filterUnits="userSpaceOnUse" primitiveUnits="userSpaceOnUse"><feFlood></feFlood><feComposite in2="SourceAlpha" operator="out"></feComposite><feGaussianBlur stdDeviation="2.24"></feGaussianBlur><feOffset dx="-8" dy="-4" result="afterOffset"></feOffset><feFlood flood-color="#000000" flood-opacity="0.6"></feFlood><feComposite in2="afterOffset" operator="in"></feComposite><feMorphology operator="dilate" radius="1"></feMorphology><feComposite in2="SourceAlpha" operator="in"></feComposite></filter><path d="M441.68 405L441.68 285L337.75 345L337.75 435L259.81 480L259.81 300L519.62 150L519.62 450L259.81 600L259.81 510L441.68 405Z" id="eP8Wbsq2M" fill="white" fill-opacity="1" filter="url(#shadow13568913)"></path></g></g><g><use xlink:href="#ecnk5OdpE" opacity="1" fill="#3891e5" fill-opacity="1"></use><g><filter id="shadow1654135" x="72.61" y="181.77" width="221.81" height="446.23" filterUnits="userSpaceOnUse" primitiveUnits="userSpaceOnUse"><feFlood></feFlood><feComposite in2="SourceAlpha" operator="out"></feComposite><feGaussianBlur stdDeviation="2.24"></feGaussianBlur><feOffset dx="8" dy="-4" result="afterOffset"></feOffset><feFlood flood-color="#000000" flood-opacity="0.6"></feFlood><feComposite in2="afterOffset" operator="in"></feComposite><feMorphology operator="dilate" radius="1"></feMorphology><feComposite in2="SourceAlpha" operator="in"></feComposite></filter><path d="M181.87 465L181.87 266.81L181.87 260.71L257.21 304.4L257.21 481.52L262.41 478.49L262.41 298.51L260 300L96.61 205.77L96.61 211.76L103.79 215.92L103.93 510L259.81 600L259.81 510L181.87 465Z" id="d76XFOuX1s" fill="white" fill-opacity="1" filter="url(#shadow1654135)"></path></g></g><g><use xlink:href="#d4b8wZzgTd" opacity="1" fill="url(#gradientfivPrN4tr)"></use></g><g><use xlink:href="#i8RsCQGFFs" opacity="1" fill="url(#gradientc3pYEhwW9z)"></use></g><g><use xlink:href="#b4jUEXH4fG" opacity="1" fill="url(#gradienta6FJdop3WH)"></use></g><g><use xlink:href="#iTp9nR5Vg" opacity="1" fill="url(#gradienteISsXv9q)"></use></g></g></g></svg>