<?xml version="1.0" encoding="UTF-8" standalone="no"?>
<!DOCTYPE svg PUBLIC "-//W3C//DTD SVG 1.1//EN" "http://www.w3.org/Graphics/SVG/1.1/DTD/svg11.dtd">
<svg version="1.1" xmlns="http://www.w3.org/2000/svg" xmlns:xlink="http://www.w3.org/1999/xlink" preserveAspectRatio="xMidYMid meet" viewBox="0 0 86.6 100" width="86.6" height="100"><defs><path d="M43.3 0L0 25L0 75L43.3 100L86.6 75L86.6 25L43.3 0Z" id="a13XBpSaz1"></path><path d="M43.3 0L0 25L0 75L43.3 100L86.6 75L86.6 25L43.3 0Z" id="a1SQHMFN61"></path><clipPath id="clipe6nBCTNMD"><use xlink:href="#a1SQHMFN61" opacity="0.85"></use></clipPath><path d="M37.73 62.5C49.06 62.5 55.25 52.88 55.25 44.54C55.25 44.27 55.25 43.99 55.23 43.72C56.43 42.83 57.47 41.72 58.3 40.46C57.18 40.97 55.98 41.3 54.76 41.45C56.05 40.66 57.01 39.42 57.47 37.96C56.26 38.69 54.94 39.21 53.56 39.49C51.23 36.95 47.33 36.82 44.85 39.21C43.26 40.76 42.58 43.05 43.07 45.25C38.12 44.99 33.51 42.59 30.39 38.65C28.75 41.54 29.59 45.23 32.29 47.08C31.31 47.05 30.36 46.78 29.5 46.29C29.5 46.31 29.5 46.34 29.5 46.37C29.5 49.37 31.57 51.96 34.44 52.56C33.53 52.81 32.58 52.85 31.66 52.66C32.47 55.23 34.78 57 37.41 57.05C35.23 58.8 32.54 59.76 29.77 59.75C29.28 59.75 28.79 59.72 28.3 59.66C31.11 61.52 34.39 62.5 37.73 62.49" id="bhxbnhQ0"></path></defs><g><g><g><g><filter id="shadow14844637" x="-15.5" y="-15.5" width="117.6" height="131" filterUnits="userSpaceOnUse" primitiveUnits="userSpaceOnUse"><feFlood></feFlood><feComposite in2="SourceAlpha" operator="out"></feComposite><feGaussianBlur stdDeviation="2"></feGaussianBlur><feOffset dx="0" dy="0" result="afterOffset"></feOffset><feFlood flood-color="#1e1e1e" flood-opacity="0.7"></feFlood><feComposite in2="afterOffset" operator="in"></feComposite><feMorphology operator="dilate" radius="2.5"></feMorphology><feComposite in2="SourceAlpha" operator="in"></feComposite></filter><path d="M43.3 0L0 25L0 75L43.3 100L86.6 75L86.6 25L43.3 0Z" id="a1wCYZzP" fill="white" fill-opacity="1" filter="url(#shadow14844637)"></path></g></g><g><g clip-path="url(#clipe6nBCTNMD)"><use xlink:href="#a1SQHMFN61" opacity="0.85" fill-opacity="0" stroke="#e37528" stroke-width="5" stroke-opacity="1"></use></g></g><g><use xlink:href="#bhxbnhQ0" opacity="0.8" fill="#2889e3" fill-opacity="1"></use><g><use xlink:href="#bhxbnhQ0" opacity="0.8" fill-opacity="0" stroke="#000000" stroke-width="1" stroke-opacity="0"></use></g></g></g></g></svg>