<?xml version="1.0" encoding="UTF-8" standalone="no"?>
<!DOCTYPE svg PUBLIC "-//W3C//DTD SVG 1.1//EN" "http://www.w3.org/Graphics/SVG/1.1/DTD/svg11.dtd">
<svg version="1.1" xmlns="http://www.w3.org/2000/svg" xmlns:xlink="http://www.w3.org/1999/xlink" preserveAspectRatio="xMidYMid meet" viewBox="0 0 86.6 100" width="86.6" height="100"><defs><path d="M43.3 0L0 25L0 75L43.3 100L86.6 75L86.6 25L43.3 0Z" id="a39nUc0F0g"></path><clipPath id="clipc1E7cOltx0"><use xlink:href="#a39nUc0F0g" opacity="1"></use></clipPath><path d="M45.48 55.61C45.48 56.21 45.48 61.02 45.48 61.62C45.79 61.92 46.09 62.07 46.39 62.07C46.91 62.07 47.18 61.62 47.18 60.73C47.18 60.31 47.18 56.95 47.18 56.52C47.18 55.63 46.91 55.18 46.39 55.18C46.09 55.18 45.79 55.32 45.48 55.61Z" id="g3BTNexfCJ"></path><path d="M52.7 35.91L50.86 35.91C50.86 40.48 50.86 43.02 50.86 43.53C50.45 44.09 50.07 44.37 49.7 44.37C49.45 44.37 49.31 44.23 49.27 43.95C49.24 43.89 49.24 43.67 49.24 43.25C49.24 42.76 49.24 40.31 49.24 35.91L47.41 35.91C47.41 40.64 47.41 43.27 47.41 43.79C47.41 44.5 47.47 44.97 47.57 45.28C47.76 45.78 48.17 46.01 48.76 46.01C49.43 46.01 50.13 45.61 50.86 44.79C50.86 44.86 50.86 45.23 50.86 45.88L52.7 45.88L52.7 35.91Z" id="a4zGWjNTn9"></path><path d="M52.13 56.55C52.13 56.61 52.13 56.91 52.13 57.46L53.94 57.46C53.94 56.91 53.94 56.61 53.94 56.55C53.95 55.63 53.64 55.18 53.04 55.18C52.43 55.18 52.13 55.63 52.13 56.55Z" id="d5Xeaiwjv"></path><path d="M44.29 35.95L44.72 36.16L45.1 36.44L45.43 36.81L45.64 37.15L45.8 37.55L45.91 38.02L45.98 38.55L46 39.16L46 42.65L45.98 43.25L45.91 43.79L45.8 44.26L45.64 44.66L45.43 45L45.1 45.36L44.72 45.65L44.29 45.85L43.81 45.97L43.29 46.01L42.76 45.97L42.28 45.85L41.85 45.65L41.47 45.36L41.14 45L40.93 44.66L40.77 44.26L40.66 43.79L40.59 43.25L40.57 42.65L40.57 39.16L40.59 38.55L40.66 38.02L40.77 37.55L40.93 37.15L41.14 36.81L41.47 36.44L41.85 36.16L42.28 35.95L42.76 35.83L43.29 35.79L43.81 35.83L44.29 35.95ZM42.77 37.76L42.57 38.19L42.41 38.8L42.41 42.99L42.46 43.6L42.62 44.03L42.9 44.29L43.29 44.37L43.67 44.29L43.94 44.03L44.11 43.6L44.16 42.99L44.16 38.8L44.11 38.19L43.94 37.76L43.67 37.5L43.29 37.41L43.01 37.5L42.77 37.76Z" id="b3DOSzGcz"></path><path d="M43.53 46.86L43.8 46.87L44.15 46.87L44.59 46.87L45.1 46.88L45.67 46.88L46.31 46.89L46.98 46.9L47.7 46.91L48.45 46.93L49.22 46.95L50 46.98L50.79 47L51.57 47.04L52.34 47.07L53.09 47.11L53.81 47.16L53.91 47.17L54.03 47.18L54.15 47.19L54.29 47.21L54.44 47.23L54.59 47.25L54.76 47.28L54.93 47.32L55.1 47.37L55.28 47.42L55.47 47.49L55.66 47.57L55.85 47.67L56.04 47.78L56.23 47.91L56.43 48.05L56.62 48.22L56.81 48.4L56.96 48.56L57.09 48.74L57.21 48.93L57.33 49.13L57.43 49.34L57.52 49.55L57.61 49.77L57.68 49.98L57.75 50.19L57.8 50.39L57.85 50.58L57.9 50.76L57.93 50.91L57.96 51.05L57.98 51.16L57.99 51.24L58 51.3L58.01 51.31L58.01 51.34L58.02 51.4L58.03 51.5L58.04 51.64L58.06 51.81L58.08 52.02L58.11 52.25L58.13 52.51L58.16 52.8L58.18 53.11L58.2 53.43L58.23 53.78L58.25 54.14L58.27 54.51L58.28 54.89L58.29 55.28L58.3 55.67L58.3 56.06L58.3 58.29L58.3 58.69L58.29 59.08L58.28 59.47L58.27 59.85L58.25 60.22L58.23 60.58L58.2 60.92L58.18 61.25L58.16 61.56L58.13 61.84L58.11 62.1L58.08 62.34L58.06 62.54L58.04 62.72L58.03 62.85L58.02 62.96L58.01 63.02L58.01 63.04L58 63.06L57.99 63.11L57.98 63.2L57.96 63.31L57.93 63.44L57.9 63.6L57.85 63.77L57.8 63.96L57.75 64.16L57.68 64.37L57.61 64.59L57.52 64.8L57.43 65.02L57.33 65.23L57.21 65.43L57.09 65.62L56.96 65.79L56.81 65.95L56.62 66.14L56.43 66.3L56.23 66.45L56.04 66.57L55.85 66.68L55.66 66.78L55.47 66.86L55.28 66.93L55.1 66.99L54.93 67.03L54.76 67.07L54.59 67.1L54.44 67.13L54.29 67.15L54.15 67.16L54.03 67.17L53.91 67.18L53.81 67.19L53.09 67.24L52.34 67.28L51.57 67.32L50.79 67.35L50 67.38L49.22 67.41L48.45 67.43L47.7 67.44L46.98 67.46L46.3 67.47L45.67 67.48L45.09 67.49L44.58 67.49L44.15 67.5L43.79 67.5L43.53 67.5L43.36 67.5L43.3 67.5L43.23 67.5L43.03 67.5L42.71 67.49L42.29 67.49L41.78 67.48L41.19 67.48L40.54 67.46L39.84 67.45L39.1 67.44L38.34 67.42L37.58 67.4L36.81 67.38L36.07 67.36L35.36 67.34L34.69 67.31L34.08 67.28L33.55 67.24L33.1 67.21L32.98 67.19L32.85 67.17L32.7 67.15L32.55 67.13L32.38 67.11L32.2 67.09L32.02 67.06L31.82 67.02L31.63 66.97L31.42 66.92L31.22 66.85L31.01 66.77L30.8 66.68L30.6 66.57L30.39 66.44L30.19 66.3L29.99 66.14L29.79 65.95L29.65 65.79L29.52 65.62L29.39 65.43L29.28 65.23L29.18 65.02L29.09 64.8L29 64.59L28.93 64.37L28.86 64.16L28.8 63.96L28.75 63.77L28.71 63.6L28.68 63.44L28.65 63.31L28.63 63.2L28.61 63.11L28.6 63.06L28.6 63.04L28.6 63.02L28.59 62.96L28.58 62.85L28.56 62.72L28.55 62.54L28.52 62.34L28.5 62.1L28.48 61.84L28.45 61.56L28.43 61.25L28.4 60.92L28.38 60.58L28.36 60.22L28.34 59.85L28.33 59.47L28.31 59.08L28.31 58.69L28.3 58.29L28.3 56.06L28.31 55.67L28.31 55.28L28.33 54.89L28.34 54.51L28.36 54.14L28.38 53.78L28.4 53.43L28.43 53.11L28.45 52.8L28.48 52.51L28.5 52.25L28.52 52.02L28.55 51.81L28.56 51.64L28.58 51.5L28.59 51.4L28.6 51.34L28.6 51.31L28.6 51.3L28.61 51.24L28.63 51.16L28.65 51.05L28.68 50.91L28.71 50.76L28.75 50.58L28.8 50.39L28.86 50.19L28.93 49.98L29 49.77L29.09 49.55L29.18 49.34L29.28 49.13L29.39 48.93L29.52 48.74L29.65 48.56L29.79 48.4L29.99 48.22L30.18 48.05L30.37 47.91L30.57 47.78L30.76 47.67L30.95 47.57L31.14 47.49L31.33 47.42L31.51 47.37L31.68 47.32L31.85 47.28L32.01 47.25L32.17 47.23L32.32 47.21L32.45 47.19L32.58 47.18L32.7 47.17L32.8 47.16L33.52 47.11L34.27 47.07L35.04 47.04L35.82 47L36.61 46.98L37.39 46.95L38.16 46.93L38.91 46.91L39.62 46.9L40.3 46.89L40.93 46.88L41.51 46.88L42.02 46.87L42.46 46.87L42.81 46.87L43.08 46.86L43.24 46.86L43.3 46.86L43.37 46.86L43.53 46.86ZM36.86 61.49L36.86 61.71L36.86 61.92L36.87 62.11L36.89 62.29L36.91 62.45L36.93 62.6L36.95 62.73L36.98 62.85L37.01 62.95L37.08 63.11L37.17 63.25L37.27 63.37L37.39 63.47L37.52 63.55L37.66 63.61L37.82 63.66L38 63.68L38.19 63.69L38.41 63.68L38.64 63.63L38.86 63.56L39.09 63.45L39.32 63.32L39.56 63.15L39.79 62.96L40.03 62.73L40.27 62.48L40.27 63.55L42.09 63.55L42.09 53.69L40.27 53.69L40.27 61.23L40.13 61.4L40 61.56L39.87 61.69L39.74 61.81L39.61 61.9L39.49 61.97L39.36 62.03L39.24 62.06L39.12 62.07L39.04 62.06L38.97 62.05L38.91 62.02L38.85 61.98L38.81 61.94L38.77 61.88L38.73 61.81L38.71 61.73L38.69 61.65L38.68 61.62L38.68 61.58L38.68 61.53L38.68 61.47L38.68 61.39L38.68 61.3L38.68 61.2L38.68 61.08L38.68 60.95L38.68 53.69L36.86 53.69L36.86 61.49ZM43.66 63.55L45.48 63.55L45.48 62.6L45.74 62.89L46.01 63.14L46.27 63.34L46.54 63.49L46.81 63.6L47.09 63.67L47.36 63.69L47.66 63.67L47.92 63.6L48.16 63.49L48.37 63.33L48.55 63.12L48.7 62.87L48.82 62.58L48.85 62.44L48.88 62.25L48.91 62.01L48.94 61.73L48.96 61.4L48.98 61.02L49 60.6L49 56.67L49 56.28L48.98 55.93L48.97 55.62L48.94 55.34L48.91 55.09L48.86 54.87L48.82 54.68L48.7 54.39L48.55 54.14L48.37 53.93L48.16 53.77L47.92 53.66L47.66 53.59L47.36 53.57L47.08 53.59L46.8 53.66L46.53 53.77L46.26 53.92L45.99 54.11L45.74 54.35L45.48 54.64L45.48 50.31L43.66 50.31L43.66 63.55ZM52.31 53.65L51.97 53.75L51.66 53.9L51.38 54.08L51.11 54.31L50.88 54.58L50.72 54.81L50.6 55.07L50.49 55.37L50.41 55.7L50.36 56.07L50.33 56.47L50.31 56.9L50.31 60.36L50.33 60.79L50.36 61.19L50.42 61.55L50.51 61.89L50.61 62.18L50.74 62.45L50.9 62.68L51.14 62.95L51.4 63.17L51.69 63.36L52 63.5L52.34 63.61L52.7 63.67L53.1 63.69L53.49 63.67L53.86 63.6L54.21 63.49L54.52 63.34L54.81 63.14L55.07 62.9L55.3 62.62L55.39 62.48L55.47 62.34L55.54 62.19L55.6 62.04L55.65 61.88L55.69 61.72L55.73 61.55L55.73 61.46L55.74 61.34L55.75 61.2L55.75 61.03L55.76 60.85L55.76 60.63L55.77 60.4L55.77 60.14L53.91 60.14L53.91 60.42L53.9 60.67L53.9 60.88L53.89 61.06L53.88 61.19L53.88 61.29L53.87 61.35L53.81 61.54L53.74 61.7L53.65 61.83L53.53 61.93L53.39 62.01L53.24 62.05L53.06 62.07L52.81 62.04L52.6 61.95L52.43 61.81L52.3 61.62L52.2 61.37L52.14 61.06L52.13 60.7L52.13 58.95L55.77 58.95L55.77 56.9L55.75 56.47L55.72 56.07L55.66 55.7L55.58 55.37L55.48 55.07L55.35 54.81L55.2 54.58L54.97 54.31L54.71 54.08L54.43 53.9L54.12 53.75L53.79 53.65L53.44 53.59L53.06 53.57L52.67 53.59L52.31 53.65ZM30.75 52.18L32.89 52.18L32.89 63.55L34.92 63.55L34.92 52.18L37.09 52.18L37.09 50.31L30.75 50.31L30.75 52.18Z" id="a521zPOF1K"></path><path d="M38.5 40.46L40.95 32.5L38.89 32.5L37.5 37.75L36.05 32.5C34.77 32.5 34.05 32.5 33.91 32.5C34.34 33.74 34.79 34.99 35.22 36.23C35.87 38.09 36.28 39.5 36.46 40.46C36.46 40.82 36.46 42.63 36.46 45.88L38.5 45.88L38.5 40.46Z" id="b2qb6vWgi5"></path></defs><g><g><g><g clip-path="url(#clipc1E7cOltx0)"><use xlink:href="#a39nUc0F0g" opacity="1" fill-opacity="0" stroke="#9d9d9d" stroke-width="6" stroke-opacity="1"></use></g></g><g><g><use xlink:href="#g3BTNexfCJ" opacity="1" fill="#9b9b9b" fill-opacity="1"></use><g><use xlink:href="#g3BTNexfCJ" opacity="1" fill-opacity="0" stroke="#000000" stroke-width="1" stroke-opacity="0"></use></g></g><g><use xlink:href="#a4zGWjNTn9" opacity="1" fill="#9b9b9b" fill-opacity="1"></use><g><use xlink:href="#a4zGWjNTn9" opacity="1" fill-opacity="0" stroke="#000000" stroke-width="1" stroke-opacity="0"></use></g></g><g><use xlink:href="#d5Xeaiwjv" opacity="1" fill="#9b9b9b" fill-opacity="1"></use><g><use xlink:href="#d5Xeaiwjv" opacity="1" fill-opacity="0" stroke="#000000" stroke-width="1" stroke-opacity="0"></use></g></g><g><use xlink:href="#b3DOSzGcz" opacity="1" fill="#9b9b9b" fill-opacity="1"></use><g><use xlink:href="#b3DOSzGcz" opacity="1" fill-opacity="0" stroke="#000000" stroke-width="1" stroke-opacity="0"></use></g></g><g><use xlink:href="#a521zPOF1K" opacity="1" fill="#9b9b9b" fill-opacity="1"></use><g><use xlink:href="#a521zPOF1K" opacity="1" fill-opacity="0" stroke="#000000" stroke-width="1" stroke-opacity="0"></use></g></g><g><use xlink:href="#b2qb6vWgi5" opacity="1" fill="#9b9b9b" fill-opacity="1"></use><g><use xlink:href="#b2qb6vWgi5" opacity="1" fill-opacity="0" stroke="#000000" stroke-width="1" stroke-opacity="0"></use></g></g></g></g></g></svg>